<svg width="84" height="38" viewBox="0 0 84 38" fill="none" xmlns="http://www.w3.org/2000/svg">
<path fill-rule="evenodd" clip-rule="evenodd" d="M63.112 21.147H60.0578V17.1598H63.0118C64.0143 17.1598 64.7737 17.3201 65.269 17.6358C65.7515 17.9437 65.9861 18.4302 65.9861 19.1234C65.9861 20.4851 65.0459 21.147 63.112 21.147ZM60.0578 11.262H62.3311C63.3869 11.262 64.1789 11.3799 64.6852 11.6127C65.1631 11.8326 65.3954 12.2723 65.3954 12.9568C65.3954 13.275 65.3178 13.5661 65.1619 13.8271C64.9637 14.1912 64.6856 14.4307 64.3126 14.5595C63.925 14.6933 63.3627 14.7612 62.6415 14.7612H60.0578V11.262ZM66.603 15.7527C67.9191 15.0479 68.5861 13.9779 68.5861 12.5682C68.5861 12.1286 68.5124 11.7055 68.3675 11.3106C68.2226 10.9154 68.0092 10.5497 67.7328 10.2228C67.4577 9.89738 67.1361 9.62448 66.7776 9.41151C66.3572 9.15806 65.8761 8.98432 65.3473 8.89524C64.8285 8.80793 64.2079 8.76392 63.5021 8.76392H58.7473C58.0782 8.76392 57.5822 8.91998 57.273 9.22769C56.9636 9.53558 56.8066 10.0361 56.8066 10.7153V19.8062V21.6938V23.6453H58.7473H59.5964H63.2322C64.0091 23.6453 64.6989 23.6062 65.2821 23.5293C65.8717 23.4521 66.4023 23.3163 66.8614 23.1253C67.5977 22.8036 68.191 22.2985 68.6243 21.6238C69.0573 20.9503 69.277 20.1828 69.277 19.3428C69.277 17.6167 68.3778 16.4106 66.603 15.7527Z" fill="#0056C1"/>
<path fill-rule="evenodd" clip-rule="evenodd" d="M47.247 12.2234L47.2652 12.2726L47.2831 12.2234L49.2513 17.6841H47.2652H45.2788L47.247 12.2234ZM44.4038 20.1723H47.2652H50.1261L51.4074 23.6208H54.7733L53.8383 21.2683C53.7921 21.1478 53.7419 21.0193 53.6838 20.876L49.5617 10.4539C49.4094 10.0661 49.2437 9.73842 49.0693 9.47984C48.8887 9.2119 48.6484 8.99203 48.3547 8.82642C48.059 8.65992 47.6926 8.57544 47.2652 8.57544C46.8375 8.57544 46.4711 8.65992 46.1755 8.82642C45.8819 8.99203 45.6415 9.2119 45.4608 9.47984C45.2864 9.73842 45.1208 10.0661 44.9684 10.4539L40.8464 20.876C40.7881 21.0193 40.7378 21.1478 40.6918 21.2683L39.7568 23.6208H43.1227L44.4038 20.1723Z" fill="#0056C1"/>
<path fill-rule="evenodd" clip-rule="evenodd" d="M77.5531 21.147H74.4988V17.1598H77.453C78.4553 17.1598 79.2149 17.3201 79.7102 17.6358C80.1927 17.9437 80.4273 18.4302 80.4273 19.1234C80.4273 20.4851 79.4871 21.147 77.5531 21.147ZM74.4988 11.262H76.7723C77.8279 11.262 78.6201 11.3799 79.1264 11.6127C79.6043 11.8326 79.8366 12.2723 79.8366 12.9568C79.8366 13.275 79.759 13.5661 79.6031 13.8271C79.4047 14.1912 79.1268 14.4307 78.7538 14.5595C78.3661 14.6933 77.8039 14.7612 77.0827 14.7612H74.4988V11.262ZM81.044 15.7527C82.3603 15.0479 83.0274 13.9779 83.0274 12.5682C83.0274 12.1286 82.9537 11.7055 82.8087 11.3106C82.6638 10.9154 82.4504 10.5497 82.174 10.2228C81.899 9.89738 81.5773 9.62448 81.2188 9.41151C80.7984 9.15806 80.3173 8.98432 79.7885 8.89524C79.2697 8.80793 78.6491 8.76392 77.9433 8.76392H73.1885C72.5194 8.76392 72.0233 8.91998 71.7142 9.22769C71.4048 9.53558 71.2478 10.0361 71.2478 10.7153V19.8062V21.6938V23.6453H73.1885H74.0376H77.6732C78.4503 23.6453 79.1401 23.6062 79.7233 23.5293C80.3129 23.4521 80.8434 23.3163 81.3026 23.1253C82.0389 22.8036 82.6322 22.2985 83.0655 21.6238C83.4985 20.9503 83.7182 20.1828 83.7182 19.3428C83.7182 17.6167 82.819 16.4106 81.044 15.7527Z" fill="#0056C1"/>
<path fill-rule="evenodd" clip-rule="evenodd" d="M7.11583 18.936C4.99203 15.5179 3.85528 11.4738 4.61909 7.37619C4.87979 5.9785 6.0066 4.89294 7.41755 4.67165C8.68004 4.4737 9.59249 4.37455 11.3806 4.52248C10.7362 5.58701 10.3549 6.64889 9.95407 7.6809C9.06097 7.64873 8.15117 7.82654 7.86295 7.91491C7.13731 10.5845 8.07375 15.1549 10.9028 18.936H7.11583Z" fill="#0056C1"/>
<path fill-rule="evenodd" clip-rule="evenodd" d="M10.5779 10.6173C11.5045 6.70578 13.5742 3.04612 17.0256 0.686408C18.2029 -0.118661 19.7712 -0.0932101 20.926 0.74332C21.9593 1.49165 22.675 2.0636 23.8343 3.42665C22.6222 3.72588 21.5982 4.20857 20.5815 4.65608C19.9729 4.00478 19.2032 3.49028 18.9365 3.34994C16.5268 4.72696 13.9416 8.6178 13.2558 13.2824L10.5779 10.6173Z" fill="#0056C1"/>
<path fill-rule="evenodd" clip-rule="evenodd" d="M18.9365 7.17141C22.3709 5.05772 26.4345 3.92638 30.5516 4.68656C31.956 4.94602 33.0469 6.06746 33.2693 7.4717C33.468 8.72817 33.5678 9.63628 33.4192 11.4159C32.3494 10.7745 31.2826 10.395 30.2455 9.99613C30.2779 9.10729 30.0993 8.20182 30.0103 7.91497C27.328 7.19279 22.7359 8.12476 18.9365 10.9403V7.17141Z" fill="#0056C1"/>
<path fill-rule="evenodd" clip-rule="evenodd" d="M27.2953 10.6172C31.2256 11.5394 34.9027 13.5992 37.2737 17.0342C38.0827 18.2059 38.0571 19.7667 37.2165 20.9161C36.4646 21.9444 35.8899 22.6567 34.5204 23.8104C34.2197 22.604 33.7347 21.5851 33.2851 20.5732C33.9395 19.9673 34.4564 19.2015 34.5974 18.936C33.2138 16.5378 29.3044 13.9649 24.6174 13.2823L27.2953 10.6172Z" fill="#0056C1"/>
<path fill-rule="evenodd" clip-rule="evenodd" d="M30.7575 18.9358C32.8813 22.3538 34.0181 26.3979 33.2541 30.4956C32.9935 31.8933 31.8667 32.979 30.4558 33.2003C29.1933 33.3981 28.2808 33.4972 26.4927 33.3493C27.1371 32.2848 27.5184 31.2229 27.9193 30.1909C28.8124 30.2232 29.722 30.0454 30.0104 29.9569C30.736 27.2873 29.7996 22.7169 26.9704 18.9358H30.7575Z" fill="#0056C1"/>
<path fill-rule="evenodd" clip-rule="evenodd" d="M27.2952 27.255C26.3685 31.1665 24.2989 34.8262 20.8474 37.1859C19.6702 37.9908 18.1019 37.9655 16.947 37.129C15.9138 36.3806 15.1981 35.8087 14.0388 34.4456C15.2509 34.1462 16.2749 33.6637 17.2916 33.2162C17.9002 33.8673 18.6698 34.3818 18.9366 34.5222C21.3463 33.1451 23.9315 29.2545 24.6173 24.5898L27.2952 27.255Z" fill="#0056C1"/>
<path fill-rule="evenodd" clip-rule="evenodd" d="M18.9365 30.7007C15.5021 32.8144 11.4385 33.9458 7.32139 33.1854C5.91701 32.9261 4.82608 31.8045 4.60391 30.4003C4.40501 29.144 4.30538 28.2359 4.45385 26.4561C5.52365 27.0975 6.59061 27.4769 7.62756 27.876C7.59506 28.7649 7.77389 29.6701 7.86268 29.957C10.545 30.6793 15.1373 29.7472 18.9365 26.9317V30.7007Z" fill="#0056C1"/>
<path fill-rule="evenodd" clip-rule="evenodd" d="M10.578 27.255C6.6478 26.3328 2.97062 24.2732 0.59962 20.838C-0.209302 19.6663 -0.183729 18.1057 0.656804 16.9561C1.40872 15.928 1.9834 15.2156 3.35297 14.0618C3.65363 15.268 4.13863 16.2872 4.58829 17.299C3.93387 17.9047 3.41691 18.6707 3.2759 18.9362C4.6595 21.3344 8.56897 23.9073 13.2559 24.5901L10.578 27.255Z" fill="#0056C1"/>
<path fill-rule="evenodd" clip-rule="evenodd" d="M40.5354 27.9381H41.223L40.8778 27.1431L40.5354 27.9381ZM39.8423 28.7275L40.7208 26.7258H41.046L41.9247 28.7275H41.5539L41.3513 28.2476H40.407L40.2017 28.7275H39.8423Z" fill="#0056C1"/>
<path fill-rule="evenodd" clip-rule="evenodd" d="M42.1587 28.7272V28.4916L43.0287 27.5091H42.1901V27.2283H43.4681V27.4639L42.598 28.446H43.4681V28.7272H42.1587Z" fill="#0056C1"/>
<path fill-rule="evenodd" clip-rule="evenodd" d="M44.829 28.083H44.0531C44.0643 28.1984 44.1033 28.293 44.1699 28.3669C44.2365 28.4407 44.325 28.4775 44.4353 28.4775C44.5399 28.4775 44.6272 28.4416 44.6977 28.3697C44.7681 28.2979 44.8117 28.2023 44.829 28.083ZM44.3981 27.1943C44.6187 27.1943 44.8029 27.2668 44.9503 27.4116C45.0977 27.5565 45.1714 27.7422 45.1714 27.9694V27.9752C45.1714 28.1947 45.1017 28.3803 44.963 28.5316C44.8242 28.6831 44.6473 28.7587 44.4324 28.7587C44.204 28.7587 44.0268 28.6816 43.9004 28.5273C43.7739 28.3732 43.7107 28.1815 43.7107 27.9524C43.7107 27.9335 43.7126 27.9013 43.7162 27.8559H44.8233C44.8041 27.7346 44.7556 27.6411 44.6777 27.5749C44.5997 27.5086 44.5047 27.4754 44.3925 27.4754C44.2442 27.4754 44.1072 27.5349 43.9817 27.6542L43.7791 27.4754C43.9369 27.288 44.1433 27.1943 44.3981 27.1943Z" fill="#0056C1"/>
<path fill-rule="evenodd" clip-rule="evenodd" d="M45.5166 28.7276V27.2286H45.8647V27.5663C45.9712 27.3108 46.149 27.1886 46.3981 27.1999V27.5635H46.3783C46.2202 27.5635 46.0952 27.6141 46.003 27.7153C45.9107 27.8168 45.8647 27.9638 45.8647 28.1568V28.7276H45.5166Z" fill="#0056C1"/>
<path fill-rule="evenodd" clip-rule="evenodd" d="M47.1624 28.3255C47.248 28.4155 47.3515 28.4606 47.4733 28.4606C47.5951 28.4606 47.6973 28.4166 47.78 28.3286C47.8626 28.2405 47.9041 28.1244 47.9041 27.9807V27.9751C47.9041 27.833 47.8622 27.7177 47.7786 27.6286C47.6949 27.5397 47.5932 27.4952 47.4733 27.4952C47.3515 27.4952 47.248 27.5403 47.1624 27.6299C47.0769 27.7198 47.034 27.8349 47.034 27.9751V27.9807C47.034 28.1207 47.0769 28.2358 47.1624 28.3255ZM47.5561 28.7586C47.3469 28.7586 47.1757 28.6706 47.0425 28.4945V28.7273H46.6946V26.6548H47.0425V27.4781C47.1757 27.2909 47.3469 27.197 47.5561 27.197C47.7443 27.197 47.9079 27.2672 48.0466 27.4072C48.1856 27.5473 48.2549 27.7365 48.2549 27.9751V27.9807C48.2549 28.2191 48.1862 28.4084 48.0482 28.5486C47.9102 28.6886 47.7463 28.7586 47.5561 28.7586Z" fill="#0056C1"/>
<path fill-rule="evenodd" clip-rule="evenodd" d="M49.1423 28.5086C49.2581 28.5086 49.3542 28.4789 49.4304 28.4192C49.5066 28.3596 49.5446 28.2826 49.5446 28.188V28.0855C49.4419 28.0459 49.3277 28.0261 49.2022 28.0261C49.0899 28.0261 49.0029 28.0479 48.9411 28.0913C48.8795 28.135 48.8486 28.1963 48.8486 28.276V28.2815C48.8486 28.3515 48.8759 28.407 48.9313 28.4476C48.9862 28.4885 49.0567 28.5086 49.1423 28.5086ZM49.0454 28.7585C48.8949 28.7585 48.7681 28.7179 48.6646 28.6366C48.5609 28.5551 48.509 28.4415 48.509 28.2958V28.2902C48.509 28.1311 48.5655 28.0109 48.6788 27.9296C48.7918 27.8481 48.9436 27.8073 49.1336 27.8073C49.2725 27.8073 49.4076 27.8282 49.5387 27.8699V27.8329C49.5387 27.6152 49.4142 27.5065 49.1651 27.5065C49.0281 27.5065 48.8846 27.5378 48.7344 27.6002L48.6403 27.3304C48.8323 27.2491 49.0224 27.2085 49.2109 27.2085C49.435 27.2085 49.6016 27.2642 49.7099 27.3759C49.8184 27.4837 49.8726 27.638 49.8726 27.8386V28.7273H49.536V28.5399C49.4142 28.6857 49.2507 28.7585 49.0454 28.7585Z" fill="#0056C1"/>
<path fill-rule="evenodd" clip-rule="evenodd" d="M50.8798 28.3412L51.2735 27.2283H51.6328L51.0338 28.767C50.9728 28.9222 50.9055 29.0316 50.8313 29.095C50.7571 29.1585 50.659 29.1901 50.5374 29.1901C50.4099 29.1901 50.2911 29.1588 50.1806 29.0963L50.2978 28.8437C50.3701 28.8817 50.4376 28.9004 50.5003 28.9004C50.5516 28.9004 50.5932 28.8877 50.6244 28.8621C50.6557 28.8366 50.6857 28.7926 50.7141 28.7301L50.0867 27.2283H50.4575L50.8798 28.3412Z" fill="#0056C1"/>
<path fill-rule="evenodd" clip-rule="evenodd" d="M52.5399 28.7614C52.3174 28.7614 52.132 28.6863 51.9835 28.5359C51.8352 28.3853 51.761 28.2022 51.761 27.9864V27.9807C51.761 27.7649 51.8356 27.5802 51.9851 27.427C52.1343 27.2737 52.3213 27.197 52.5456 27.197C52.7834 27.197 52.9839 27.2833 53.1476 27.4554L52.9308 27.6854C52.8107 27.5604 52.6816 27.498 52.5427 27.498C52.4191 27.498 52.3154 27.5443 52.2318 27.6371C52.1481 27.7299 52.1064 27.8425 52.1064 27.9751V27.9807C52.1064 28.1152 52.1485 28.2287 52.2332 28.3215C52.3177 28.4141 52.4257 28.4606 52.5571 28.4606C52.6939 28.4606 52.8242 28.3991 52.9478 28.276L53.1561 28.4804C53.0743 28.5712 52.9858 28.6407 52.8908 28.6891C52.7956 28.7374 52.6786 28.7614 52.5399 28.7614Z" fill="#0056C1"/>
<path fill-rule="evenodd" clip-rule="evenodd" d="M54.0032 28.5086C54.1192 28.5086 54.2153 28.4789 54.2914 28.4192C54.3676 28.3596 54.4056 28.2826 54.4056 28.188V28.0855C54.3028 28.0459 54.1888 28.0261 54.0632 28.0261C53.951 28.0261 53.864 28.0479 53.8022 28.0913C53.7404 28.135 53.7095 28.1963 53.7095 28.276V28.2815C53.7095 28.3515 53.737 28.407 53.7922 28.4476C53.8473 28.4885 53.9178 28.5086 54.0032 28.5086ZM53.9063 28.7585C53.756 28.7585 53.6292 28.7179 53.5255 28.6366C53.4218 28.5551 53.3701 28.4415 53.3701 28.2958V28.2902C53.3701 28.1311 53.4266 28.0109 53.5397 27.9296C53.6528 27.8481 53.8045 27.8073 53.9947 27.8073C54.1336 27.8073 54.2685 27.8282 54.3998 27.8699V27.8329C54.3998 27.6152 54.2753 27.5065 54.0261 27.5065C53.8892 27.5065 53.7455 27.5378 53.5953 27.6002L53.5012 27.3304C53.6933 27.2491 53.8835 27.2085 54.0718 27.2085C54.2961 27.2085 54.4626 27.2642 54.571 27.3759C54.6795 27.4837 54.7335 27.638 54.7335 27.8386V28.7273H54.3971V28.5399C54.2753 28.6857 54.1117 28.7585 53.9063 28.7585Z" fill="#0056C1"/>
<path fill-rule="evenodd" clip-rule="evenodd" d="M55.1445 28.7273V27.2283H55.4926V27.4581C55.6182 27.284 55.775 27.197 55.9632 27.197C56.1325 27.197 56.2642 27.2486 56.3584 27.3517C56.4525 27.4549 56.4995 27.5945 56.4995 27.7706V28.7273H56.1545V27.8755C56.1545 27.7582 56.1262 27.6679 56.0703 27.6042C56.014 27.541 55.9346 27.5092 55.832 27.5092C55.7293 27.5092 55.6471 27.5424 55.5851 27.6087C55.5235 27.6749 55.4926 27.7658 55.4926 27.8812V28.7273H55.1445Z" fill="#0056C1"/>
<path fill-rule="evenodd" clip-rule="evenodd" d="M59.4664 28.1452V28.1396C59.4664 27.9616 59.3295 27.8727 59.0557 27.8727H58.4993V28.4178H59.0812C59.2031 28.4178 59.2975 28.3946 59.3652 28.3481C59.4327 28.3018 59.4664 28.2341 59.4664 28.1452ZM59.3551 27.3076V27.302C59.3551 27.2224 59.3251 27.1606 59.2652 27.116C59.2052 27.0717 59.1184 27.0492 59.0042 27.0492H58.4993V27.5773H58.9786C59.0965 27.5773 59.1887 27.5545 59.2553 27.5091C59.3219 27.4639 59.3551 27.3967 59.3551 27.3076ZM58.1541 28.7272V26.7397H59.0498C59.2798 26.7397 59.454 26.7984 59.5719 26.9158C59.6612 27.0049 59.706 27.1146 59.706 27.2451V27.2507C59.706 27.4478 59.6108 27.5954 59.4206 27.6936C59.5501 27.7392 59.6485 27.7988 59.7159 27.8727C59.7834 27.9464 59.8173 28.0477 59.8173 28.1765V28.1822C59.8173 28.3562 59.7508 28.4906 59.6176 28.5851C59.4845 28.6799 59.3046 28.7272 59.0782 28.7272H58.1541Z" fill="#0056C1"/>
<path fill-rule="evenodd" clip-rule="evenodd" d="M60.4335 27.8727H61.2065C61.1951 27.7573 61.1561 27.6626 61.0895 27.5889C61.0229 27.515 60.9344 27.478 60.8242 27.478C60.7178 27.478 60.6297 27.5141 60.5604 27.5859C60.4908 27.6578 60.4486 27.7534 60.4335 27.8727ZM60.8641 28.7612C60.6435 28.7612 60.4594 28.6889 60.312 28.5442C60.1646 28.3992 60.0911 28.2124 60.0911 27.9834V27.9777C60.0911 27.7582 60.1605 27.5731 60.2994 27.4227C60.4381 27.2723 60.6141 27.197 60.8272 27.197C61.0554 27.197 61.2326 27.2741 61.3592 27.4282C61.4857 27.5825 61.5487 27.7743 61.5487 28.0032C61.5487 28.0222 61.5469 28.0542 61.5432 28.0998H60.4363C60.4553 28.2211 60.5038 28.3146 60.5817 28.3809C60.6597 28.4471 60.7556 28.4804 60.8698 28.4804C61.0163 28.4804 61.1523 28.4206 61.2779 28.3015L61.4805 28.4804C61.3205 28.6677 61.1152 28.7612 60.8641 28.7612Z" fill="#0056C1"/>
<path fill-rule="evenodd" clip-rule="evenodd" d="M62.476 28.3412L62.8697 27.2283H63.2292L62.6301 28.767C62.5692 28.9222 62.5017 29.0316 62.4277 29.095C62.3535 29.1585 62.2554 29.1901 62.1336 29.1901C62.0063 29.1901 61.8874 29.1588 61.777 29.0963L61.8942 28.8437C61.9663 28.8817 62.034 28.9004 62.0967 28.9004C62.148 28.9004 62.1894 28.8877 62.2208 28.8621C62.252 28.8366 62.2821 28.7926 62.3105 28.7301L61.6829 27.2283H62.0539L62.476 28.3412Z" fill="#0056C1"/>
<path fill-rule="evenodd" clip-rule="evenodd" d="M63.5229 28.7273V27.2283H63.871V27.4581C63.9966 27.284 64.1536 27.197 64.3416 27.197C64.5109 27.197 64.6427 27.2486 64.7368 27.3517C64.8309 27.4549 64.8781 27.5945 64.8781 27.7706V28.7273H64.5329V27.8755C64.5329 27.7582 64.5047 27.6679 64.4487 27.6042C64.3924 27.541 64.3131 27.5092 64.2104 27.5092C64.1078 27.5092 64.0255 27.5424 63.9637 27.6087C63.9019 27.6749 63.871 27.7658 63.871 27.8812V28.7273H63.5229Z" fill="#0056C1"/>
<path fill-rule="evenodd" clip-rule="evenodd" d="M66.3273 28.083H65.5514C65.5626 28.1984 65.6016 28.293 65.6682 28.3669C65.7348 28.4407 65.8233 28.4775 65.9336 28.4775C66.0382 28.4775 66.1255 28.4416 66.196 28.3697C66.2664 28.2979 66.31 28.2023 66.3273 28.083ZM65.8964 27.1943C66.117 27.1943 66.3012 27.2668 66.4486 27.4116C66.5958 27.5565 66.6697 27.7422 66.6697 27.9694V27.9752C66.6697 28.1947 66.6 28.3803 66.4613 28.5316C66.3225 28.6831 66.1456 28.7587 65.9307 28.7587C65.7023 28.7587 65.5251 28.6816 65.3987 28.5273C65.2722 28.3732 65.209 28.1815 65.209 27.9524C65.209 27.9335 65.2108 27.9013 65.2147 27.8559H66.3216C66.3024 27.7346 66.2541 27.6411 66.176 27.5749C66.098 27.5086 66.003 27.4754 65.8908 27.4754C65.7425 27.4754 65.6055 27.5349 65.48 27.6542L65.2774 27.4754C65.4354 27.288 65.6416 27.1943 65.8964 27.1943Z" fill="#0056C1"/>
<path fill-rule="evenodd" clip-rule="evenodd" d="M67.0347 28.7275H67.3827V26.6548H67.0347V28.7275Z" fill="#0056C1"/>
<path fill-rule="evenodd" clip-rule="evenodd" d="M68.0987 27.2283L68.4438 27.7308L68.7947 27.2283H69.1626L68.6322 27.9609L69.1856 28.7272H68.8089L68.4381 28.1935L68.0701 28.7272H67.7021L68.2527 27.9635L67.722 27.2283H68.0987Z" fill="#0056C1"/>
<path fill-rule="evenodd" clip-rule="evenodd" d="M69.9758 28.5086C70.0918 28.5086 70.1879 28.4789 70.2641 28.4192C70.3401 28.3596 70.3781 28.2826 70.3781 28.188V28.0855C70.2754 28.0459 70.1612 28.0261 70.0359 28.0261C69.9234 28.0261 69.8366 28.0479 69.7746 28.0913C69.713 28.135 69.6821 28.1963 69.6821 28.276V28.2815C69.6821 28.3515 69.7096 28.407 69.7648 28.4476C69.8199 28.4885 69.8904 28.5086 69.9758 28.5086ZM69.8789 28.7585C69.7284 28.7585 69.6016 28.7179 69.4981 28.6366C69.3944 28.5551 69.3425 28.4415 69.3425 28.2958V28.2902C69.3425 28.1311 69.399 28.0109 69.5123 27.9296C69.6253 27.8481 69.7771 27.8073 69.9673 27.8073C70.106 27.8073 70.2412 27.8282 70.3724 27.8699V27.8329C70.3724 27.6152 70.2477 27.5065 69.9987 27.5065C69.8616 27.5065 69.7181 27.5378 69.5679 27.6002L69.4738 27.3304C69.6659 27.2491 69.856 27.2085 70.0444 27.2085C70.2687 27.2085 70.4351 27.2642 70.5436 27.3759C70.6521 27.4837 70.7061 27.638 70.7061 27.8386V28.7273H70.3695V28.5399C70.2477 28.6857 70.0842 28.7585 69.8789 28.7585Z" fill="#0056C1"/>
<path fill-rule="evenodd" clip-rule="evenodd" d="M71.137 28.7275H71.485V26.6548H71.137V28.7275Z" fill="#0056C1"/>
<path fill-rule="evenodd" clip-rule="evenodd" d="M72.6402 28.4604C72.7601 28.4604 72.8629 28.4153 72.9483 28.3254C73.0339 28.2358 73.0767 28.1205 73.0767 27.9805V27.9749C73.0767 27.8347 73.0339 27.7198 72.9483 27.6299C72.8629 27.5401 72.7601 27.495 72.6402 27.495C72.5184 27.495 72.4157 27.539 72.3323 27.627C72.2484 27.7151 72.2067 27.831 72.2067 27.9749V27.9805C72.2067 28.1225 72.2484 28.2379 72.3323 28.327C72.4157 28.4159 72.5184 28.4604 72.6402 28.4604ZM73.071 29.1815V28.4774C72.938 28.6647 72.7668 28.7586 72.5575 28.7586C72.3694 28.7586 72.2058 28.6884 72.0668 28.5484C71.9281 28.4083 71.8586 28.2191 71.8586 27.9805V27.9749C71.8586 27.7363 71.9275 27.5472 72.0655 27.407C72.2033 27.267 72.3674 27.197 72.5575 27.197C72.7688 27.197 72.9398 27.285 73.071 27.4611V27.2281H73.4163V29.1815H73.071Z" fill="#0056C1"/>
<path fill-rule="evenodd" clip-rule="evenodd" d="M76.3431 28.1452V28.1396C76.3431 27.9616 76.2062 27.8727 75.9324 27.8727H75.376V28.4178H75.958C76.0798 28.4178 76.1743 28.3946 76.2417 28.3481C76.3094 28.3018 76.3431 28.2341 76.3431 28.1452ZM76.2318 27.3076V27.302C76.2318 27.2224 76.2018 27.1606 76.1419 27.116C76.0819 27.0717 75.9951 27.0492 75.8809 27.0492H75.376V27.5773H75.8553C75.9732 27.5773 76.0654 27.5545 76.132 27.5091C76.1986 27.4639 76.2318 27.3967 76.2318 27.3076ZM75.0308 28.7272V26.7397H75.9265C76.1565 26.7397 76.3307 26.7984 76.4486 26.9158C76.538 27.0049 76.5827 27.1146 76.5827 27.2451V27.2507C76.5827 27.4478 76.4875 27.5954 76.2973 27.6936C76.4268 27.7392 76.5252 27.7988 76.5927 27.8727C76.6601 27.9464 76.6941 28.0477 76.6941 28.1765V28.1822C76.6941 28.3562 76.6275 28.4906 76.4943 28.5851C76.3613 28.6799 76.1814 28.7272 75.9549 28.7272H75.0308Z" fill="#0056C1"/>
<path fill-rule="evenodd" clip-rule="evenodd" d="M77.5811 28.5086C77.6971 28.5086 77.7931 28.4789 77.8692 28.4192C77.9453 28.3596 77.9835 28.2826 77.9835 28.188V28.0855C77.8807 28.0459 77.7665 28.0261 77.6411 28.0261C77.5289 28.0261 77.4419 28.0479 77.3801 28.0913C77.3183 28.135 77.2874 28.1963 77.2874 28.276V28.2815C77.2874 28.3515 77.3149 28.407 77.3701 28.4476C77.4252 28.4885 77.4957 28.5086 77.5811 28.5086ZM77.4841 28.7585C77.3337 28.7585 77.2071 28.7179 77.1034 28.6366C76.9997 28.5551 76.948 28.4415 76.948 28.2958V28.2902C76.948 28.1311 77.0045 28.0109 77.1176 27.9296C77.2307 27.8481 77.3824 27.8073 77.5726 27.8073C77.7113 27.8073 77.8464 27.8282 77.9777 27.8699V27.8329C77.9777 27.6152 77.853 27.5065 77.604 27.5065C77.4669 27.5065 77.3234 27.5378 77.1732 27.6002L77.0791 27.3304C77.2712 27.2491 77.4612 27.2085 77.6496 27.2085C77.8739 27.2085 78.0405 27.2642 78.1489 27.3759C78.2574 27.4837 78.3113 27.638 78.3113 27.8386V28.7273H77.9748V28.5399C77.853 28.6857 77.6896 28.7585 77.4841 28.7585Z" fill="#0056C1"/>
<path fill-rule="evenodd" clip-rule="evenodd" d="M78.7222 28.7273V27.2283H79.0701V27.4581C79.1956 27.284 79.3526 27.197 79.5409 27.197C79.7101 27.197 79.8419 27.2486 79.936 27.3517C80.0301 27.4549 80.0772 27.5945 80.0772 27.7706V28.7273H79.7321V27.8755C79.7321 27.7582 79.7039 27.6679 79.6479 27.6042C79.5917 27.541 79.5123 27.5092 79.4096 27.5092C79.307 27.5092 79.2246 27.5424 79.1628 27.6087C79.1011 27.6749 79.0701 27.7658 79.0701 27.8812V28.7273H78.7222Z" fill="#0056C1"/>
<path fill-rule="evenodd" clip-rule="evenodd" d="M80.491 28.7275V26.6548H80.839V27.8927L81.4638 27.2285H81.8832L81.2841 27.8388L81.9031 28.7275H81.4981L81.053 28.0772L80.839 28.2987V28.7275H80.491Z" fill="#0056C1"/>
<path fill-rule="evenodd" clip-rule="evenodd" d="M82.1711 28.7272H82.5192V27.2283H82.1711V28.7272Z" fill="#0056C1"/>
</svg>
